<svg width="630" height="104" viewBox="0 0 630 104" fill="none" xmlns="http://www.w3.org/2000/svg">
<path d="M141.062 63L143.926 45.5455H146.653L143.79 63H141.062ZM133.247 58.6705L133.699 55.9432H147.335L146.884 58.6705H133.247ZM134.926 63L137.79 45.5455H140.517L137.653 63H134.926ZM134.244 52.6023L134.705 49.875H148.341L147.881 52.6023H134.244ZM156.29 63H150.103V45.5455H156.342C158.097 45.5455 159.609 45.8949 160.876 46.5938C162.143 47.2869 163.117 48.2841 163.799 49.5852C164.487 50.8864 164.83 52.4432 164.83 54.2557C164.83 56.0739 164.487 57.6364 163.799 58.9432C163.117 60.25 162.137 61.2528 160.859 61.9517C159.586 62.6506 158.063 63 156.29 63ZM153.793 59.8381H156.137C157.228 59.8381 158.146 59.6449 158.89 59.2585C159.64 58.8665 160.202 58.2614 160.577 57.4432C160.958 56.6193 161.148 55.5568 161.148 54.2557C161.148 52.9659 160.958 51.9119 160.577 51.0938C160.202 50.2756 159.643 49.6733 158.898 49.2869C158.154 48.9006 157.237 48.7074 156.146 48.7074H153.793V59.8381ZM167.496 63V49.9091H171.016V52.1932H171.152C171.391 51.3807 171.791 50.767 172.354 50.3523C172.916 49.9318 173.564 49.7216 174.297 49.7216C174.479 49.7216 174.675 49.733 174.885 49.7557C175.095 49.7784 175.28 49.8097 175.439 49.8494V53.071C175.268 53.0199 175.033 52.9744 174.732 52.9347C174.43 52.8949 174.155 52.875 173.905 52.875C173.371 52.875 172.893 52.9915 172.473 53.2244C172.058 53.4517 171.729 53.7699 171.484 54.179C171.246 54.5881 171.126 55.0597 171.126 55.5938V63H167.496ZM177.316 63V49.9091H180.947V63H177.316ZM179.14 48.2216C178.6 48.2216 178.137 48.0426 177.751 47.6847C177.37 47.321 177.18 46.8864 177.18 46.3807C177.18 45.8807 177.37 45.4517 177.751 45.0938C178.137 44.7301 178.6 44.5483 179.14 44.5483C179.68 44.5483 180.14 44.7301 180.521 45.0938C180.907 45.4517 181.1 45.8807 181.1 46.3807C181.1 46.8864 180.907 47.321 180.521 47.6847C180.14 48.0426 179.68 48.2216 179.14 48.2216ZM187.486 55.4318V63H183.855V49.9091H187.315V52.2188H187.469C187.759 51.4574 188.244 50.8551 188.926 50.4119C189.608 49.9631 190.435 49.7386 191.406 49.7386C192.315 49.7386 193.108 49.9375 193.784 50.3352C194.46 50.733 194.986 51.3011 195.361 52.0398C195.736 52.7727 195.923 53.6477 195.923 54.6648V63H192.293V55.3125C192.298 54.5114 192.094 53.8864 191.679 53.4375C191.264 52.983 190.693 52.7557 189.966 52.7557C189.477 52.7557 189.045 52.8608 188.67 53.071C188.301 53.2812 188.011 53.5881 187.801 53.9915C187.597 54.3892 187.491 54.8693 187.486 55.4318ZM202.075 59.233L202.083 54.8778H202.612L206.805 49.9091H210.972L205.339 56.4886H204.478L202.075 59.233ZM198.785 63V45.5455H202.415V63H198.785ZM206.967 63L203.114 57.2983L205.535 54.733L211.219 63H206.967ZM218.106 63.2557C216.901 63.2557 215.862 63.0398 214.987 62.608C214.112 62.1761 213.438 61.5909 212.967 60.8523C212.501 60.108 212.268 59.2784 212.268 58.3636C212.268 57.6818 212.404 57.0767 212.677 56.5483C212.95 56.0199 213.33 55.5341 213.819 55.0909C214.308 54.642 214.876 54.196 215.523 53.7528L218.907 51.5284C219.344 51.25 219.665 50.9574 219.87 50.6506C220.075 50.3381 220.177 50 220.177 49.6364C220.177 49.2898 220.038 48.9687 219.759 48.6733C219.481 48.3778 219.086 48.233 218.575 48.2386C218.234 48.2386 217.938 48.3153 217.688 48.4688C217.438 48.6165 217.242 48.8125 217.1 49.0568C216.964 49.2955 216.896 49.5625 216.896 49.858C216.896 50.2216 216.998 50.5909 217.202 50.9659C217.407 51.3409 217.68 51.7386 218.021 52.1591C218.362 52.5739 218.734 53.0227 219.137 53.5057L227.413 63H223.629L216.725 55.3125C216.271 54.7955 215.816 54.2557 215.362 53.6932C214.913 53.125 214.538 52.5227 214.237 51.8864C213.935 51.2443 213.785 50.5483 213.785 49.7983C213.785 48.9517 213.981 48.1903 214.373 47.5142C214.771 46.8381 215.327 46.304 216.043 45.9119C216.759 45.5142 217.594 45.3153 218.549 45.3153C219.481 45.3153 220.285 45.5057 220.961 45.8864C221.643 46.2614 222.165 46.7614 222.529 47.3864C222.898 48.0057 223.083 48.6875 223.083 49.4318C223.083 50.2557 222.879 51.0028 222.469 51.6733C222.066 52.3381 221.498 52.9347 220.765 53.4631L217.202 56.0284C216.719 56.3807 216.362 56.7415 216.129 57.1108C215.901 57.4744 215.788 57.8239 215.788 58.1591C215.788 58.5739 215.89 58.946 216.094 59.2756C216.299 59.6051 216.589 59.8665 216.964 60.0597C217.339 60.2472 217.779 60.3409 218.285 60.3409C218.898 60.3409 219.504 60.2017 220.1 59.9233C220.702 59.6392 221.248 59.2386 221.737 58.7216C222.231 58.1989 222.626 57.5795 222.921 56.8636C223.217 56.1477 223.364 55.3551 223.364 54.4858H226.373C226.373 55.554 226.256 56.517 226.023 57.375C225.79 58.2273 225.467 58.9716 225.052 59.608C224.637 60.2386 224.163 60.7557 223.629 61.1591C223.458 61.267 223.293 61.3693 223.134 61.4659C222.975 61.5625 222.81 61.6648 222.64 61.7727C221.992 62.2955 221.268 62.6733 220.467 62.9062C219.671 63.1392 218.884 63.2557 218.106 63.2557ZM228.994 63V45.5455H232.684V59.9574H240.167V63H228.994ZM242.543 63V49.9091H246.173V63H242.543ZM244.366 48.2216C243.827 48.2216 243.364 48.0426 242.977 47.6847C242.597 47.321 242.406 46.8864 242.406 46.3807C242.406 45.8807 242.597 45.4517 242.977 45.0938C243.364 44.7301 243.827 44.5483 244.366 44.5483C244.906 44.5483 245.366 44.7301 245.747 45.0938C246.134 45.4517 246.327 45.8807 246.327 46.3807C246.327 46.8864 246.134 47.321 245.747 47.6847C245.366 48.0426 244.906 48.2216 244.366 48.2216ZM261.286 49.9091L256.71 63H252.619L248.042 49.9091H251.877L254.596 59.2756H254.732L257.442 49.9091H261.286ZM268.688 63.2557C267.342 63.2557 266.183 62.983 265.211 62.4375C264.245 61.8864 263.501 61.108 262.978 60.1023C262.455 59.0909 262.194 57.8949 262.194 56.5142C262.194 55.1676 262.455 53.9858 262.978 52.9688C263.501 51.9517 264.237 51.1591 265.185 50.5909C266.14 50.0227 267.259 49.7386 268.543 49.7386C269.407 49.7386 270.211 49.8778 270.955 50.1562C271.705 50.429 272.359 50.8409 272.915 51.392C273.478 51.9432 273.915 52.6364 274.228 53.4716C274.54 54.3011 274.697 55.2727 274.697 56.3864V57.3835H263.643V55.1335H271.279C271.279 54.6108 271.165 54.1477 270.938 53.7443C270.711 53.3409 270.396 53.0256 269.992 52.7983C269.594 52.5653 269.131 52.4489 268.603 52.4489C268.052 52.4489 267.563 52.5767 267.137 52.8324C266.717 53.0824 266.387 53.4205 266.148 53.8466C265.91 54.267 265.788 54.7358 265.782 55.2528V57.392C265.782 58.0398 265.901 58.5994 266.14 59.071C266.384 59.5426 266.728 59.9062 267.171 60.1619C267.614 60.4176 268.14 60.5455 268.748 60.5455C269.151 60.5455 269.521 60.4886 269.856 60.375C270.191 60.2614 270.478 60.0909 270.717 59.8636C270.955 59.6364 271.137 59.358 271.262 59.0284L274.62 59.25C274.45 60.0568 274.1 60.7614 273.572 61.3636C273.049 61.9602 272.373 62.4261 271.543 62.7614C270.719 63.0909 269.768 63.2557 268.688 63.2557ZM277.134 63V45.5455H284.021C285.339 45.5455 286.464 45.7812 287.396 46.2528C288.333 46.7187 289.046 47.3807 289.535 48.2386C290.029 49.0909 290.276 50.0937 290.276 51.2472C290.276 52.4062 290.026 53.4034 289.526 54.2386C289.026 55.0682 288.302 55.7045 287.353 56.1477C286.41 56.5909 285.268 56.8125 283.927 56.8125H279.316V53.8466H283.33C284.035 53.8466 284.62 53.75 285.086 53.5568C285.552 53.3636 285.898 53.0739 286.126 52.6875C286.359 52.3011 286.475 51.821 286.475 51.2472C286.475 50.6676 286.359 50.179 286.126 49.7812C285.898 49.3835 285.549 49.0824 285.077 48.8778C284.612 48.6676 284.023 48.5625 283.313 48.5625H280.825V63H277.134ZM286.56 55.0568L290.898 63H286.825L282.58 55.0568H286.56ZM298.571 63.2557C297.224 63.2557 296.065 62.983 295.094 62.4375C294.128 61.8864 293.384 61.108 292.861 60.1023C292.338 59.0909 292.077 57.8949 292.077 56.5142C292.077 55.1676 292.338 53.9858 292.861 52.9688C293.384 51.9517 294.119 51.1591 295.068 50.5909C296.023 50.0227 297.142 49.7386 298.426 49.7386C299.29 49.7386 300.094 49.8778 300.838 50.1562C301.588 50.429 302.241 50.8409 302.798 51.392C303.361 51.9432 303.798 52.6364 304.111 53.4716C304.423 54.3011 304.58 55.2727 304.58 56.3864V57.3835H293.526V55.1335H301.162C301.162 54.6108 301.048 54.1477 300.821 53.7443C300.594 53.3409 300.278 53.0256 299.875 52.7983C299.477 52.5653 299.014 52.4489 298.486 52.4489C297.935 52.4489 297.446 52.5767 297.02 52.8324C296.599 53.0824 296.27 53.4205 296.031 53.8466C295.793 54.267 295.67 54.7358 295.665 55.2528V57.392C295.665 58.0398 295.784 58.5994 296.023 59.071C296.267 59.5426 296.611 59.9062 297.054 60.1619C297.497 60.4176 298.023 60.5455 298.631 60.5455C299.034 60.5455 299.403 60.4886 299.739 60.375C300.074 60.2614 300.361 60.0909 300.599 59.8636C300.838 59.6364 301.02 59.358 301.145 59.0284L304.503 59.25C304.332 60.0568 303.983 60.7614 303.455 61.3636C302.932 61.9602 302.256 62.4261 301.426 62.7614C300.602 63.0909 299.651 63.2557 298.571 63.2557ZM317.841 53.642L314.517 53.8466C314.46 53.5625 314.338 53.3068 314.151 53.0795C313.963 52.8466 313.716 52.6619 313.409 52.5256C313.108 52.3835 312.747 52.3125 312.327 52.3125C311.764 52.3125 311.29 52.4318 310.903 52.6705C310.517 52.9034 310.324 53.2159 310.324 53.608C310.324 53.9205 310.449 54.1847 310.699 54.4006C310.949 54.6165 311.378 54.7898 311.986 54.9205L314.355 55.3977C315.628 55.6591 316.577 56.0795 317.202 56.6591C317.827 57.2386 318.139 58 318.139 58.9432C318.139 59.8011 317.886 60.554 317.381 61.2017C316.881 61.8494 316.193 62.3551 315.318 62.7188C314.449 63.0767 313.446 63.2557 312.31 63.2557C310.577 63.2557 309.196 62.8949 308.168 62.1733C307.145 61.446 306.545 60.4574 306.369 59.2074L309.94 59.0199C310.048 59.5483 310.31 59.9517 310.724 60.2301C311.139 60.5028 311.67 60.6392 312.318 60.6392C312.955 60.6392 313.466 60.517 313.852 60.2727C314.244 60.0227 314.443 59.7017 314.449 59.3097C314.443 58.9801 314.304 58.7102 314.031 58.5C313.759 58.2841 313.338 58.1193 312.77 58.0057L310.503 57.554C309.224 57.2983 308.273 56.8551 307.648 56.2244C307.028 55.5937 306.719 54.7898 306.719 53.8125C306.719 52.9716 306.946 52.2472 307.401 51.6392C307.861 51.0312 308.506 50.5625 309.335 50.233C310.17 49.9034 311.148 49.7386 312.267 49.7386C313.92 49.7386 315.222 50.0881 316.17 50.7869C317.125 51.4858 317.682 52.4375 317.841 53.642ZM320.425 67.9091V49.9091H324.005V52.108H324.167C324.326 51.7557 324.556 51.3977 324.857 51.0341C325.164 50.6648 325.562 50.358 326.05 50.1136C326.545 49.8636 327.158 49.7386 327.891 49.7386C328.846 49.7386 329.727 49.9886 330.533 50.4886C331.34 50.983 331.985 51.7301 332.468 52.7301C332.951 53.7244 333.192 54.9716 333.192 56.4716C333.192 57.9318 332.957 59.1648 332.485 60.1705C332.019 61.1705 331.383 61.929 330.576 62.446C329.775 62.9574 328.877 63.2131 327.883 63.2131C327.178 63.2131 326.579 63.0966 326.085 62.8636C325.596 62.6307 325.195 62.3381 324.883 61.9858C324.57 61.6278 324.332 61.267 324.167 60.9034H324.056V67.9091H320.425ZM323.979 56.4545C323.979 57.233 324.087 57.9119 324.303 58.4915C324.519 59.071 324.832 59.5227 325.241 59.8466C325.65 60.1648 326.147 60.3239 326.732 60.3239C327.323 60.3239 327.823 60.1619 328.232 59.8381C328.641 59.5085 328.951 59.054 329.161 58.4744C329.377 57.8892 329.485 57.2159 329.485 56.4545C329.485 55.6989 329.38 55.0341 329.17 54.4602C328.96 53.8864 328.65 53.4375 328.241 53.1136C327.832 52.7898 327.329 52.6278 326.732 52.6278C326.141 52.6278 325.641 52.7841 325.232 53.0966C324.829 53.4091 324.519 53.8523 324.303 54.4261C324.087 55 323.979 55.6761 323.979 56.4545ZM341.528 63.2557C340.204 63.2557 339.059 62.9744 338.093 62.4119C337.133 61.8437 336.391 61.054 335.869 60.0426C335.346 59.0256 335.085 57.8466 335.085 56.5057C335.085 55.1534 335.346 53.9716 335.869 52.9602C336.391 51.9432 337.133 51.1534 338.093 50.5909C339.059 50.0227 340.204 49.7386 341.528 49.7386C342.852 49.7386 343.994 50.0227 344.954 50.5909C345.92 51.1534 346.664 51.9432 347.187 52.9602C347.71 53.9716 347.971 55.1534 347.971 56.5057C347.971 57.8466 347.71 59.0256 347.187 60.0426C346.664 61.054 345.92 61.8437 344.954 62.4119C343.994 62.9744 342.852 63.2557 341.528 63.2557ZM341.545 60.4432C342.147 60.4432 342.65 60.2727 343.053 59.9318C343.457 59.5852 343.761 59.1136 343.965 58.517C344.175 57.9205 344.281 57.2415 344.281 56.4801C344.281 55.7188 344.175 55.0398 343.965 54.4432C343.761 53.8466 343.457 53.375 343.053 53.0284C342.65 52.6818 342.147 52.5085 341.545 52.5085C340.937 52.5085 340.425 52.6818 340.011 53.0284C339.602 53.375 339.292 53.8466 339.082 54.4432C338.877 55.0398 338.775 55.7188 338.775 56.4801C338.775 57.2415 338.877 57.9205 339.082 58.517C339.292 59.1136 339.602 59.5852 340.011 59.9318C340.425 60.2727 340.937 60.4432 341.545 60.4432ZM353.962 55.4318V63H350.332V49.9091H353.792V52.2188H353.945C354.235 51.4574 354.721 50.8551 355.403 50.4119C356.085 49.9631 356.911 49.7386 357.883 49.7386C358.792 49.7386 359.585 49.9375 360.261 50.3352C360.937 50.733 361.462 51.3011 361.837 52.0398C362.212 52.7727 362.4 53.6477 362.4 54.6648V63H358.769V55.3125C358.775 54.5114 358.57 53.8864 358.156 53.4375C357.741 52.983 357.17 52.7557 356.442 52.7557C355.954 52.7557 355.522 52.8608 355.147 53.071C354.778 53.2812 354.488 53.5881 354.278 53.9915C354.073 54.3892 353.968 54.8693 353.962 55.4318ZM376.153 53.642L372.83 53.8466C372.773 53.5625 372.651 53.3068 372.463 53.0795C372.276 52.8466 372.028 52.6619 371.722 52.5256C371.42 52.3835 371.06 52.3125 370.639 52.3125C370.077 52.3125 369.602 52.4318 369.216 52.6705C368.83 52.9034 368.636 53.2159 368.636 53.608C368.636 53.9205 368.761 54.1847 369.011 54.4006C369.261 54.6165 369.69 54.7898 370.298 54.9205L372.668 55.3977C373.94 55.6591 374.889 56.0795 375.514 56.6591C376.139 57.2386 376.452 58 376.452 58.9432C376.452 59.8011 376.199 60.554 375.693 61.2017C375.193 61.8494 374.506 62.3551 373.631 62.7188C372.761 63.0767 371.759 63.2557 370.622 63.2557C368.889 63.2557 367.509 62.8949 366.48 62.1733C365.457 61.446 364.858 60.4574 364.682 59.2074L368.253 59.0199C368.361 59.5483 368.622 59.9517 369.037 60.2301C369.452 60.5028 369.983 60.6392 370.631 60.6392C371.267 60.6392 371.778 60.517 372.165 60.2727C372.557 60.0227 372.756 59.7017 372.761 59.3097C372.756 58.9801 372.616 58.7102 372.344 58.5C372.071 58.2841 371.651 58.1193 371.082 58.0057L368.815 57.554C367.537 57.2983 366.585 56.8551 365.96 56.2244C365.341 55.5937 365.031 54.7898 365.031 53.8125C365.031 52.9716 365.259 52.2472 365.713 51.6392C366.173 51.0312 366.818 50.5625 367.648 50.233C368.483 49.9034 369.46 49.7386 370.58 49.7386C372.233 49.7386 373.534 50.0881 374.483 50.7869C375.438 51.4858 375.994 52.4375 376.153 53.642ZM378.738 63V49.9091H382.369V63H378.738ZM380.562 48.2216C380.022 48.2216 379.559 48.0426 379.173 47.6847C378.792 47.321 378.602 46.8864 378.602 46.3807C378.602 45.8807 378.792 45.4517 379.173 45.0938C379.559 44.7301 380.022 44.5483 380.562 44.5483C381.102 44.5483 381.562 44.7301 381.942 45.0938C382.329 45.4517 382.522 45.8807 382.522 46.3807C382.522 46.8864 382.329 47.321 381.942 47.6847C381.562 48.0426 381.102 48.2216 380.562 48.2216ZM385.345 63V45.5455H388.976V52.108H389.087C389.246 51.7557 389.476 51.3977 389.777 51.0341C390.084 50.6648 390.482 50.358 390.97 50.1136C391.464 49.8636 392.078 49.7386 392.811 49.7386C393.766 49.7386 394.646 49.9886 395.453 50.4886C396.26 50.983 396.905 51.7301 397.388 52.7301C397.871 53.7244 398.112 54.9716 398.112 56.4716C398.112 57.9318 397.876 59.1648 397.405 60.1705C396.939 61.1705 396.303 61.929 395.496 62.446C394.695 62.9574 393.797 63.2131 392.803 63.2131C392.098 63.2131 391.499 63.0966 391.004 62.8636C390.516 62.6307 390.115 62.3381 389.803 61.9858C389.49 61.6278 389.251 61.267 389.087 60.9034H388.925V63H385.345ZM388.899 56.4545C388.899 57.233 389.007 57.9119 389.223 58.4915C389.439 59.071 389.751 59.5227 390.161 59.8466C390.57 60.1648 391.067 60.3239 391.652 60.3239C392.243 60.3239 392.743 60.1619 393.152 59.8381C393.561 59.5085 393.871 59.054 394.081 58.4744C394.297 57.8892 394.405 57.2159 394.405 56.4545C394.405 55.6989 394.3 55.0341 394.089 54.4602C393.879 53.8864 393.57 53.4375 393.161 53.1136C392.751 52.7898 392.249 52.6278 391.652 52.6278C391.061 52.6278 390.561 52.7841 390.152 53.0966C389.749 53.4091 389.439 53.8523 389.223 54.4261C389.007 55 388.899 55.6761 388.899 56.4545ZM404.165 45.5455V63H400.535V45.5455H404.165ZM409.315 67.9091C408.855 67.9091 408.423 67.8722 408.02 67.7983C407.622 67.7301 407.293 67.642 407.031 67.5341L407.849 64.8239C408.276 64.9545 408.659 65.0256 409 65.0369C409.347 65.0483 409.645 64.9688 409.895 64.7983C410.151 64.6278 410.358 64.3381 410.517 63.929L410.73 63.375L406.034 49.9091H409.852L412.562 59.5227H412.699L415.435 49.9091H419.278L414.19 64.4148C413.946 65.1193 413.614 65.733 413.193 66.2557C412.778 66.7841 412.253 67.1903 411.616 67.4744C410.98 67.7642 410.213 67.9091 409.315 67.9091Z" fill="white"/>
<path d="M139.5 97H134.114V79.5455H139.739C141.432 79.5455 142.881 79.8949 144.085 80.5938C145.29 81.2869 146.213 82.2841 146.855 83.5852C147.497 84.8807 147.818 86.4318 147.818 88.2386C147.818 90.0568 147.494 91.6222 146.847 92.9347C146.199 94.2415 145.256 95.2472 144.017 95.9517C142.778 96.6506 141.273 97 139.5 97ZM136.227 95.125H139.364C140.807 95.125 142.003 94.8466 142.952 94.2898C143.901 93.733 144.608 92.9403 145.074 91.9119C145.54 90.8835 145.773 89.6591 145.773 88.2386C145.773 86.8295 145.543 85.6165 145.082 84.5994C144.622 83.5767 143.935 82.7926 143.02 82.2472C142.105 81.696 140.966 81.4205 139.602 81.4205H136.227V95.125ZM151.364 97V79.5455H157.261C158.625 79.5455 159.744 79.7784 160.619 80.2443C161.494 80.7045 162.142 81.3381 162.562 82.1449C162.983 82.9517 163.193 83.8693 163.193 84.8977C163.193 85.9261 162.983 86.8381 162.562 87.6335C162.142 88.429 161.497 89.054 160.628 89.5085C159.759 89.9574 158.648 90.1818 157.295 90.1818H152.523V88.2727H157.227C158.159 88.2727 158.909 88.1364 159.477 87.8636C160.051 87.5909 160.466 87.2045 160.722 86.7045C160.983 86.1989 161.114 85.5966 161.114 84.8977C161.114 84.1989 160.983 83.5881 160.722 83.0653C160.46 82.5426 160.043 82.1392 159.469 81.8551C158.895 81.5653 158.136 81.4205 157.193 81.4205H153.477V97H151.364ZM159.58 89.1591L163.875 97H161.42L157.193 89.1591H159.58ZM168.829 79.5455V97H166.715V79.5455H168.829ZM186.908 79.5455V97H184.862L175.351 83.2955H175.18V97H173.067V79.5455H175.112L184.658 93.2841H184.828V79.5455H186.908ZM191.137 97V79.5455H193.251V88.2045H193.455L201.296 79.5455H204.058L196.728 87.4205L204.058 97H201.501L195.433 88.8864L193.251 91.3409V97H191.137ZM208.907 79.5455V97H206.793V79.5455H208.907ZM219.486 91.5455H221.804L223.747 94.1023L224.259 94.7841L227.156 98.6364H224.838L222.929 96.0795L222.452 95.4318L219.486 91.5455ZM227.872 88.2727C227.872 90.1136 227.54 91.7045 226.875 93.0455C226.21 94.3864 225.298 95.4205 224.139 96.1477C222.98 96.875 221.656 97.2386 220.168 97.2386C218.679 97.2386 217.355 96.875 216.196 96.1477C215.037 95.4205 214.125 94.3864 213.46 93.0455C212.795 91.7045 212.463 90.1136 212.463 88.2727C212.463 86.4318 212.795 84.8409 213.46 83.5C214.125 82.1591 215.037 81.125 216.196 80.3977C217.355 79.6705 218.679 79.3068 220.168 79.3068C221.656 79.3068 222.98 79.6705 224.139 80.3977C225.298 81.125 226.21 82.1591 226.875 83.5C227.54 84.8409 227.872 86.4318 227.872 88.2727ZM225.827 88.2727C225.827 86.7614 225.574 85.4858 225.068 84.446C224.568 83.4062 223.889 82.6193 223.031 82.0852C222.179 81.5511 221.224 81.2841 220.168 81.2841C219.111 81.2841 218.153 81.5511 217.295 82.0852C216.443 82.6193 215.764 83.4062 215.259 84.446C214.759 85.4858 214.509 86.7614 214.509 88.2727C214.509 89.7841 214.759 91.0597 215.259 92.0994C215.764 93.1392 216.443 93.9261 217.295 94.4602C218.153 94.9943 219.111 95.2614 220.168 95.2614C221.224 95.2614 222.179 94.9943 223.031 94.4602C223.889 93.9261 224.568 93.1392 225.068 92.0994C225.574 91.0597 225.827 89.7841 225.827 88.2727ZM231.518 97.1364C231.097 97.1364 230.737 96.9858 230.435 96.6847C230.134 96.3835 229.984 96.0227 229.984 95.6023C229.984 95.1818 230.134 94.821 230.435 94.5199C230.737 94.2187 231.097 94.0682 231.518 94.0682C231.938 94.0682 232.299 94.2187 232.6 94.5199C232.901 94.821 233.052 95.1818 233.052 95.6023C233.052 95.8807 232.981 96.1364 232.839 96.3693C232.702 96.6023 232.518 96.7898 232.285 96.9318C232.058 97.0682 231.802 97.1364 231.518 97.1364ZM241.979 97.2727C240.752 97.2727 239.695 96.983 238.809 96.4034C237.923 95.8239 237.241 95.0256 236.763 94.0085C236.286 92.9915 236.048 91.8295 236.048 90.5227C236.048 89.1932 236.292 88.0199 236.781 87.0028C237.275 85.9801 237.962 85.1818 238.843 84.608C239.729 84.0284 240.763 83.7386 241.945 83.7386C242.866 83.7386 243.695 83.9091 244.434 84.25C245.173 84.5909 245.778 85.0682 246.249 85.6818C246.721 86.2955 247.013 87.0114 247.127 87.8295H245.116C244.962 87.233 244.621 86.7045 244.093 86.2443C243.57 85.7784 242.866 85.5455 241.979 85.5455C241.195 85.5455 240.508 85.75 239.917 86.1591C239.332 86.5625 238.874 87.1335 238.545 87.8722C238.221 88.6051 238.059 89.4659 238.059 90.4545C238.059 91.4659 238.218 92.3466 238.536 93.0966C238.86 93.8466 239.315 94.429 239.9 94.8438C240.491 95.2585 241.184 95.4659 241.979 95.4659C242.502 95.4659 242.977 95.375 243.403 95.1932C243.829 95.0114 244.19 94.75 244.485 94.4091C244.781 94.0682 244.991 93.6591 245.116 93.1818H247.127C247.013 93.9545 246.732 94.6506 246.283 95.2699C245.84 95.8835 245.252 96.3722 244.519 96.7358C243.792 97.0938 242.945 97.2727 241.979 97.2727ZM255.386 97.2727C254.204 97.2727 253.167 96.9915 252.275 96.429C251.388 95.8665 250.695 95.0795 250.195 94.0682C249.701 93.0568 249.454 91.875 249.454 90.5227C249.454 89.1591 249.701 87.9687 250.195 86.9517C250.695 85.9347 251.388 85.1449 252.275 84.5824C253.167 84.0199 254.204 83.7386 255.386 83.7386C256.567 83.7386 257.602 84.0199 258.488 84.5824C259.38 85.1449 260.073 85.9347 260.567 86.9517C261.067 87.9687 261.317 89.1591 261.317 90.5227C261.317 91.875 261.067 93.0568 260.567 94.0682C260.073 95.0795 259.38 95.8665 258.488 96.429C257.602 96.9915 256.567 97.2727 255.386 97.2727ZM255.386 95.4659C256.283 95.4659 257.022 95.2358 257.602 94.7756C258.181 94.3153 258.61 93.7102 258.888 92.9602C259.167 92.2102 259.306 91.3977 259.306 90.5227C259.306 89.6477 259.167 88.8324 258.888 88.0767C258.61 87.321 258.181 86.7102 257.602 86.2443C257.022 85.7784 256.283 85.5455 255.386 85.5455C254.488 85.5455 253.749 85.7784 253.17 86.2443C252.59 86.7102 252.161 87.321 251.883 88.0767C251.604 88.8324 251.465 89.6477 251.465 90.5227C251.465 91.3977 251.604 92.2102 251.883 92.9602C252.161 93.7102 252.59 94.3153 253.17 94.7756C253.749 95.2358 254.488 95.4659 255.386 95.4659ZM264.388 97V83.9091H266.331V85.9545H266.501C266.774 85.2557 267.214 84.7131 267.822 84.3267C268.43 83.9347 269.161 83.7386 270.013 83.7386C270.876 83.7386 271.595 83.9347 272.169 84.3267C272.749 84.7131 273.2 85.2557 273.524 85.9545H273.661C273.996 85.2784 274.499 84.7415 275.169 84.3438C275.839 83.9403 276.643 83.7386 277.581 83.7386C278.751 83.7386 279.709 84.1051 280.453 84.8381C281.197 85.5653 281.57 86.6989 281.57 88.2386V97H279.558V88.2386C279.558 87.2727 279.294 86.5824 278.766 86.1676C278.237 85.7528 277.615 85.5455 276.899 85.5455C275.979 85.5455 275.266 85.8239 274.76 86.3807C274.254 86.9318 274.001 87.6307 274.001 88.4773V97H271.956V88.0341C271.956 87.2898 271.714 86.6903 271.232 86.2358C270.749 85.7756 270.126 85.5455 269.365 85.5455C268.842 85.5455 268.354 85.6847 267.899 85.9631C267.45 86.2415 267.087 86.6278 266.808 87.1222C266.536 87.6108 266.399 88.1761 266.399 88.8182V97H264.388ZM294.929 73.9205V102.625H293.224V73.9205H294.929Z" fill="white"/>
<path d="M390.898 100.045C389.159 100.045 387.622 99.8068 386.287 99.3295C384.952 98.858 383.83 98.1619 382.92 97.2415C382.011 96.321 381.324 95.1932 380.858 93.858C380.392 92.5227 380.159 90.9943 380.159 89.2727C380.159 87.608 380.395 86.1193 380.866 84.8068C381.344 83.4943 382.034 82.3807 382.938 81.4659C383.847 80.5455 384.949 79.8437 386.244 79.3608C387.545 78.8778 389.017 78.6364 390.659 78.6364C392.256 78.6364 393.653 78.8977 394.852 79.4205C396.057 79.9375 397.063 80.6392 397.869 81.5256C398.682 82.4062 399.29 83.3977 399.693 84.5C400.102 85.6023 400.307 86.7386 400.307 87.9091C400.307 88.733 400.267 89.5682 400.188 90.4148C400.108 91.2614 399.94 92.0398 399.685 92.75C399.429 93.4545 399.034 94.0227 398.5 94.4545C397.972 94.8864 397.256 95.1023 396.352 95.1023C395.955 95.1023 395.517 95.0398 395.04 94.9148C394.562 94.7898 394.139 94.5824 393.77 94.2926C393.401 94.0028 393.182 93.6136 393.114 93.125H393.011C392.875 93.4545 392.665 93.767 392.381 94.0625C392.102 94.358 391.736 94.5937 391.281 94.7699C390.832 94.946 390.284 95.0227 389.636 95C388.898 94.9716 388.247 94.8068 387.685 94.5057C387.122 94.1989 386.651 93.7841 386.27 93.2614C385.895 92.733 385.611 92.1222 385.418 91.429C385.23 90.7301 385.136 89.9773 385.136 89.1705C385.136 88.4034 385.25 87.7017 385.477 87.0653C385.705 86.429 386.02 85.8722 386.423 85.3949C386.832 84.9176 387.31 84.5369 387.855 84.2528C388.406 83.9631 389 83.7841 389.636 83.7159C390.205 83.6591 390.722 83.6847 391.188 83.7926C391.653 83.8949 392.037 84.0511 392.338 84.2614C392.639 84.4659 392.83 84.6932 392.909 84.9432H393.011V83.9886H394.818V91.6932C394.818 92.1705 394.952 92.5909 395.219 92.9545C395.486 93.3182 395.875 93.5 396.386 93.5C396.966 93.5 397.409 93.3011 397.716 92.9034C398.028 92.5057 398.241 91.892 398.355 91.0625C398.474 90.233 398.534 89.1705 398.534 87.875C398.534 87.1136 398.429 86.3636 398.219 85.625C398.014 84.8807 397.702 84.1847 397.281 83.5369C396.866 82.8892 396.341 82.3182 395.705 81.8239C395.068 81.3295 394.321 80.9432 393.463 80.6648C392.611 80.3807 391.642 80.2386 390.557 80.2386C389.222 80.2386 388.026 80.446 386.969 80.8608C385.918 81.2699 385.023 81.8693 384.284 82.6591C383.551 83.4432 382.991 84.3977 382.605 85.5227C382.224 86.642 382.034 87.9148 382.034 89.3409C382.034 90.7898 382.224 92.0767 382.605 93.2017C382.991 94.3267 383.56 95.2756 384.31 96.0483C385.065 96.821 386 97.4091 387.114 97.8125C388.227 98.2102 389.511 98.4091 390.966 98.4091C391.591 98.4091 392.207 98.3494 392.815 98.2301C393.423 98.1108 393.96 97.9801 394.426 97.8381C394.892 97.696 395.227 97.5909 395.432 97.5227L395.909 99.0909C395.557 99.2386 395.097 99.3864 394.528 99.5341C393.966 99.6818 393.364 99.804 392.722 99.9006C392.085 99.9972 391.477 100.045 390.898 100.045ZM389.909 93.2614C390.67 93.2614 391.287 93.108 391.759 92.8011C392.23 92.4943 392.574 92.0312 392.79 91.4119C393.006 90.7926 393.114 90.0114 393.114 89.0682C393.114 88.1136 392.994 87.3693 392.756 86.8352C392.517 86.3011 392.165 85.9261 391.699 85.7102C391.233 85.4943 390.659 85.3864 389.977 85.3864C389.33 85.3864 388.776 85.5568 388.315 85.8977C387.861 86.233 387.511 86.6818 387.267 87.2443C387.028 87.8011 386.909 88.4091 386.909 89.0682C386.909 89.7955 387.006 90.4801 387.199 91.1222C387.392 91.7585 387.707 92.2756 388.145 92.6733C388.582 93.0653 389.17 93.2614 389.909 93.2614ZM413.136 84.9091C413.033 84.0455 412.619 83.375 411.891 82.8977C411.164 82.4205 410.272 82.1818 409.215 82.1818C408.442 82.1818 407.766 82.3068 407.187 82.5568C406.613 82.8068 406.164 83.1506 405.84 83.5881C405.522 84.0256 405.363 84.5227 405.363 85.0795C405.363 85.5455 405.474 85.946 405.695 86.2812C405.923 86.6108 406.212 86.8864 406.565 87.108C406.917 87.3239 407.286 87.5028 407.673 87.6449C408.059 87.7812 408.414 87.892 408.738 87.9773L410.511 88.4545C410.965 88.5739 411.471 88.7386 412.028 88.9489C412.59 89.1591 413.127 89.446 413.638 89.8097C414.156 90.1676 414.582 90.6278 414.917 91.1903C415.252 91.7528 415.42 92.4432 415.42 93.2614C415.42 94.2045 415.173 95.0568 414.678 95.8182C414.19 96.5795 413.474 97.1847 412.531 97.6335C411.593 98.0824 410.454 98.3068 409.113 98.3068C407.863 98.3068 406.781 98.1051 405.866 97.7017C404.957 97.2983 404.241 96.7358 403.718 96.0142C403.201 95.2926 402.908 94.4545 402.84 93.5H405.022C405.079 94.1591 405.3 94.7045 405.687 95.1364C406.079 95.5625 406.573 95.8807 407.17 96.0909C407.772 96.2955 408.42 96.3977 409.113 96.3977C409.92 96.3977 410.644 96.267 411.286 96.0057C411.928 95.7386 412.437 95.3693 412.812 94.8977C413.187 94.4205 413.374 93.8636 413.374 93.2273C413.374 92.6477 413.212 92.1761 412.888 91.8125C412.565 91.4489 412.138 91.1534 411.61 90.9261C411.082 90.6989 410.511 90.5 409.897 90.3295L407.749 89.7159C406.386 89.3239 405.306 88.7642 404.511 88.0369C403.715 87.3097 403.317 86.358 403.317 85.1818C403.317 84.2045 403.582 83.3523 404.11 82.625C404.644 81.892 405.36 81.3239 406.258 80.9205C407.161 80.5114 408.17 80.3068 409.283 80.3068C410.408 80.3068 411.408 80.5085 412.283 80.9119C413.158 81.3097 413.852 81.8551 414.363 82.5483C414.88 83.2415 415.153 84.0284 415.181 84.9091H413.136ZM418.895 80.5455H421.418L427.349 95.0341H427.554L433.486 80.5455H436.009V98H434.031V84.7386H433.861L428.406 98H426.497L421.043 84.7386H420.872V98H418.895V80.5455ZM442.36 80.5455V98H440.246V80.5455H442.36ZM446.598 98V80.5455H452.496C453.859 80.5455 454.979 80.7784 455.854 81.2443C456.729 81.7045 457.376 82.3381 457.797 83.1449C458.217 83.9517 458.428 84.8693 458.428 85.8977C458.428 86.9261 458.217 87.8381 457.797 88.6335C457.376 89.429 456.732 90.054 455.862 90.5085C454.993 90.9574 453.882 91.1818 452.53 91.1818H447.757V89.2727H452.462C453.393 89.2727 454.143 89.1364 454.712 88.8636C455.286 88.5909 455.7 88.2045 455.956 87.7045C456.217 87.1989 456.348 86.5966 456.348 85.8977C456.348 85.1989 456.217 84.5881 455.956 84.0653C455.695 83.5426 455.277 83.1392 454.703 82.8551C454.129 82.5653 453.371 82.4205 452.428 82.4205H448.712V98H446.598ZM454.814 90.1591L459.109 98H456.655L452.428 90.1591H454.814ZM475.79 80.5455V98H473.745L464.234 84.2955H464.063V98H461.95V80.5455H463.995L473.54 94.2841H473.711V80.5455H475.79ZM494.747 89.2727C494.747 91.1136 494.415 92.7045 493.75 94.0455C493.085 95.3864 492.173 96.4205 491.014 97.1477C489.855 97.875 488.531 98.2386 487.043 98.2386C485.554 98.2386 484.23 97.875 483.071 97.1477C481.912 96.4205 481 95.3864 480.335 94.0455C479.67 92.7045 479.338 91.1136 479.338 89.2727C479.338 87.4318 479.67 85.8409 480.335 84.5C481 83.1591 481.912 82.125 483.071 81.3977C484.23 80.6705 485.554 80.3068 487.043 80.3068C488.531 80.3068 489.855 80.6705 491.014 81.3977C492.173 82.125 493.085 83.1591 493.75 84.5C494.415 85.8409 494.747 87.4318 494.747 89.2727ZM492.702 89.2727C492.702 87.7614 492.449 86.4858 491.943 85.446C491.443 84.4062 490.764 83.6193 489.906 83.0852C489.054 82.5511 488.099 82.2841 487.043 82.2841C485.986 82.2841 485.028 82.5511 484.17 83.0852C483.318 83.6193 482.639 84.4062 482.134 85.446C481.634 86.4858 481.384 87.7614 481.384 89.2727C481.384 90.7841 481.634 92.0597 482.134 93.0994C482.639 94.1392 483.318 94.9261 484.17 95.4602C485.028 95.9943 485.986 96.2614 487.043 96.2614C488.099 96.2614 489.054 95.9943 489.906 95.4602C490.764 94.9261 491.443 94.1392 491.943 93.0994C492.449 92.0597 492.702 90.7841 492.702 89.2727ZM498.301 98V80.5455H508.767V82.4205H500.415V88.3182H507.983V90.1932H500.415V98H498.301ZM512.387 98V80.5455H522.853V82.4205H514.501V88.3182H522.069V90.1932H514.501V98H512.387ZM531.514 80.5455H533.628V93.0227C533.628 94.1364 533.423 95.0824 533.014 95.8608C532.605 96.6392 532.028 97.2301 531.284 97.6335C530.54 98.0369 529.662 98.2386 528.651 98.2386C527.696 98.2386 526.847 98.0653 526.102 97.7188C525.358 97.3665 524.773 96.8665 524.347 96.2188C523.92 95.571 523.707 94.8011 523.707 93.9091H525.787C525.787 94.4034 525.909 94.8352 526.153 95.2045C526.403 95.5682 526.744 95.8523 527.176 96.0568C527.608 96.2614 528.099 96.3636 528.651 96.3636C529.259 96.3636 529.776 96.2358 530.202 95.9801C530.628 95.7244 530.952 95.3494 531.173 94.8551C531.401 94.3551 531.514 93.7443 531.514 93.0227V80.5455ZM538.58 98H536.364L542.773 80.5455H544.955L551.364 98H549.148L543.932 83.3068H543.795L538.58 98ZM539.398 91.1818H548.33V93.0568H539.398V91.1818ZM554.082 80.5455H556.605L562.537 95.0341H562.741L568.673 80.5455H571.196V98H569.219V84.7386H569.048L563.594 98H561.685L556.23 84.7386H556.06V98H554.082V80.5455ZM576.15 98H573.934L580.343 80.5455H582.525L588.934 98H586.718L581.502 83.3068H581.366L576.15 98ZM576.968 91.1818H585.9V93.0568H576.968V91.1818ZM593.766 80.5455V98H591.653V80.5455H593.766ZM612.05 86H609.936C609.811 85.392 609.592 84.858 609.28 84.3977C608.973 83.9375 608.598 83.5511 608.155 83.2386C607.717 82.9205 607.232 82.6818 606.697 82.5227C606.163 82.3636 605.607 82.2841 605.027 82.2841C603.97 82.2841 603.013 82.5511 602.155 83.0852C601.303 83.6193 600.624 84.4062 600.118 85.446C599.618 86.4858 599.368 87.7614 599.368 89.2727C599.368 90.7841 599.618 92.0597 600.118 93.0994C600.624 94.1392 601.303 94.9261 602.155 95.4602C603.013 95.9943 603.97 96.2614 605.027 96.2614C605.607 96.2614 606.163 96.1818 606.697 96.0227C607.232 95.8636 607.717 95.6278 608.155 95.3153C608.598 94.9972 608.973 94.608 609.28 94.1477C609.592 93.6818 609.811 93.1477 609.936 92.5455H612.05C611.891 93.4375 611.601 94.2358 611.18 94.9403C610.76 95.6449 610.237 96.2443 609.612 96.7386C608.987 97.2273 608.286 97.5994 607.507 97.8551C606.734 98.1108 605.908 98.2386 605.027 98.2386C603.538 98.2386 602.214 97.875 601.055 97.1477C599.896 96.4205 598.984 95.3864 598.32 94.0455C597.655 92.7045 597.322 91.1136 597.322 89.2727C597.322 87.4318 597.655 85.8409 598.32 84.5C598.984 83.1591 599.896 82.125 601.055 81.3977C602.214 80.6705 603.538 80.3068 605.027 80.3068C605.908 80.3068 606.734 80.4347 607.507 80.6903C608.286 80.946 608.987 81.321 609.612 81.8153C610.237 82.304 610.76 82.9006 611.18 83.6051C611.601 84.304 611.891 85.1023 612.05 86ZM616.181 98H613.965L620.374 80.5455H622.556L628.965 98H626.749L621.533 83.3068H621.397L616.181 98ZM616.999 91.1818H625.931V93.0568H616.999V91.1818Z" fill="white"/>
<path d="M1.13778 98V84.9091H6.30256C7.29119 84.9091 8.13494 85.0859 8.83381 85.4396C9.53693 85.7891 10.0717 86.2855 10.4382 86.929C10.8089 87.5682 10.9943 88.3203 10.9943 89.1854C10.9943 90.0547 10.8068 90.8026 10.4318 91.429C10.0568 92.0511 9.51349 92.5284 8.80185 92.8608C8.09446 93.1932 7.23793 93.3594 6.23224 93.3594H2.77415V91.1349H5.7848C6.31321 91.1349 6.75213 91.0625 7.10156 90.9176C7.45099 90.7727 7.71094 90.5554 7.88139 90.2656C8.05611 89.9759 8.14347 89.6158 8.14347 89.1854C8.14347 88.7507 8.05611 88.3842 7.88139 88.0859C7.71094 87.7876 7.44886 87.5618 7.09517 87.4084C6.74574 87.2507 6.30469 87.1719 5.77202 87.1719H3.90554V98H1.13778ZM8.20739 92.0426L11.4609 98H8.40554L5.2223 92.0426H8.20739ZM12.9503 98V84.9091H21.7713V87.1911H15.718V90.3104H21.3175V92.5923H15.718V95.718H21.7969V98H12.9503ZM31.0733 88.674C31.0222 88.1584 30.8027 87.7578 30.415 87.4723C30.0272 87.1868 29.5009 87.044 28.8361 87.044C28.3844 87.044 28.003 87.108 27.6919 87.2358C27.3809 87.3594 27.1422 87.532 26.976 87.7536C26.8141 87.9751 26.7331 88.2266 26.7331 88.5078C26.7246 88.7422 26.7736 88.9467 26.8801 89.1214C26.9909 89.2962 27.1422 89.4474 27.334 89.5753C27.5257 89.6989 27.7473 89.8075 27.9988 89.9013C28.2502 89.9908 28.5186 90.0675 28.8042 90.1314L29.9803 90.4126C30.5513 90.5405 31.0755 90.7109 31.5527 90.924C32.03 91.1371 32.4434 91.3991 32.7928 91.7102C33.1422 92.0213 33.4128 92.3878 33.6046 92.8097C33.8006 93.2315 33.9007 93.7152 33.905 94.2607C33.9007 95.0618 33.6962 95.7564 33.2914 96.3445C32.8908 96.9283 32.3113 97.3821 31.5527 97.706C30.7985 98.0256 29.8887 98.1854 28.8233 98.1854C27.7665 98.1854 26.8461 98.0234 26.062 97.6996C25.2821 97.3757 24.6728 96.8963 24.2338 96.2614C23.7992 95.6222 23.5712 94.8317 23.5499 93.8899H26.2282C26.258 94.3288 26.3837 94.6953 26.6053 94.9893C26.8311 95.2791 27.1316 95.4986 27.5066 95.6477C27.8858 95.7926 28.3141 95.8651 28.7914 95.8651C29.2601 95.8651 29.6671 95.7969 30.0123 95.6605C30.3617 95.5241 30.6323 95.3345 30.824 95.0916C31.0158 94.8487 31.1117 94.5696 31.1117 94.2543C31.1117 93.9602 31.0243 93.7131 30.8496 93.5128C30.6792 93.3125 30.4277 93.142 30.0953 93.0014C29.7672 92.8608 29.3645 92.733 28.8873 92.6179L27.4618 92.2599C26.3581 91.9915 25.4867 91.5717 24.8475 91.0007C24.2083 90.4297 23.8908 89.6605 23.8951 88.6932C23.8908 87.9006 24.1017 87.2081 24.5279 86.6158C24.9583 86.0234 25.5485 85.5611 26.2985 85.2287C27.0485 84.8963 27.9007 84.7301 28.8553 84.7301C29.8269 84.7301 30.6749 84.8963 31.3993 85.2287C32.128 85.5611 32.6948 86.0234 33.0996 86.6158C33.5044 87.2081 33.7132 87.8942 33.726 88.674H31.0733ZM35.7667 98V84.9091H40.9315C41.9244 84.9091 42.7702 85.0987 43.4691 85.478C44.168 85.853 44.7006 86.375 45.0671 87.044C45.4379 87.7088 45.6232 88.4759 45.6232 89.3452C45.6232 90.2145 45.4357 90.9815 45.0607 91.6463C44.6857 92.3111 44.1424 92.8288 43.4308 93.1996C42.7234 93.5703 41.8668 93.7557 40.8612 93.7557H37.5692V91.5376H40.4137C40.9464 91.5376 41.3853 91.446 41.7305 91.2628C42.0799 91.0753 42.3398 90.8175 42.5103 90.4893C42.685 90.157 42.7724 89.7756 42.7724 89.3452C42.7724 88.9105 42.685 88.5312 42.5103 88.2074C42.3398 87.8793 42.0799 87.6257 41.7305 87.4467C41.381 87.2635 40.9379 87.1719 40.4009 87.1719H38.5344V98H35.7667ZM59.4508 91.4545C59.4508 92.8821 59.1802 94.0966 58.639 95.098C58.1021 96.0994 57.3691 96.8643 56.4402 97.3928C55.5154 97.9169 54.4757 98.179 53.3208 98.179C52.1575 98.179 51.1135 97.9148 50.1887 97.3864C49.264 96.858 48.5332 96.093 47.9963 95.0916C47.4593 94.0902 47.1909 92.8778 47.1909 91.4545C47.1909 90.027 47.4593 88.8125 47.9963 87.8111C48.5332 86.8097 49.264 86.0469 50.1887 85.5227C51.1135 84.9943 52.1575 84.7301 53.3208 84.7301C54.4757 84.7301 55.5154 84.9943 56.4402 85.5227C57.3691 86.0469 58.1021 86.8097 58.639 87.8111C59.1802 88.8125 59.4508 90.027 59.4508 91.4545ZM56.6447 91.4545C56.6447 90.5298 56.5062 89.75 56.2292 89.1151C55.9565 88.4801 55.5708 87.9986 55.0723 87.6705C54.5737 87.3423 53.9899 87.1783 53.3208 87.1783C52.6518 87.1783 52.068 87.3423 51.5694 87.6705C51.0708 87.9986 50.6831 88.4801 50.4061 89.1151C50.1333 89.75 49.997 90.5298 49.997 91.4545C49.997 92.3793 50.1333 93.1591 50.4061 93.794C50.6831 94.429 51.0708 94.9105 51.5694 95.2386C52.068 95.5668 52.6518 95.7308 53.3208 95.7308C53.9899 95.7308 54.5737 95.5668 55.0723 95.2386C55.5708 94.9105 55.9565 94.429 56.2292 93.794C56.5062 93.1591 56.6447 92.3793 56.6447 91.4545ZM72.4506 84.9091V98H70.06L64.3647 89.7607H64.2688V98H61.5011V84.9091H63.93L69.5806 93.142H69.6957V84.9091H72.4506ZM81.839 88.674C81.7878 88.1584 81.5684 87.7578 81.1806 87.4723C80.7928 87.1868 80.2665 87.044 79.6017 87.044C79.15 87.044 78.7686 87.108 78.4576 87.2358C78.1465 87.3594 77.9078 87.532 77.7417 87.7536C77.5797 87.9751 77.4988 88.2266 77.4988 88.5078C77.4902 88.7422 77.5392 88.9467 77.6458 89.1214C77.7566 89.2962 77.9078 89.4474 78.0996 89.5753C78.2914 89.6989 78.513 89.8075 78.7644 89.9013C79.0158 89.9908 79.2843 90.0675 79.5698 90.1314L80.7459 90.4126C81.3169 90.5405 81.8411 90.7109 82.3184 90.924C82.7956 91.1371 83.209 91.3991 83.5584 91.7102C83.9078 92.0213 84.1784 92.3878 84.3702 92.8097C84.5662 93.2315 84.6664 93.7152 84.6706 94.2607C84.6664 95.0618 84.4618 95.7564 84.057 96.3445C83.6564 96.9283 83.0769 97.3821 82.3184 97.706C81.5641 98.0256 80.6543 98.1854 79.589 98.1854C78.5321 98.1854 77.6117 98.0234 76.8276 97.6996C76.0478 97.3757 75.4384 96.8963 74.9995 96.2614C74.5648 95.6222 74.3368 94.8317 74.3155 93.8899H76.9938C77.0236 94.3288 77.1493 94.6953 77.3709 94.9893C77.5968 95.2791 77.8972 95.4986 78.2722 95.6477C78.6515 95.7926 79.0797 95.8651 79.557 95.8651C80.0257 95.8651 80.4327 95.7969 80.7779 95.6605C81.1273 95.5241 81.3979 95.3345 81.5897 95.0916C81.7814 94.8487 81.8773 94.5696 81.8773 94.2543C81.8773 93.9602 81.79 93.7131 81.6152 93.5128C81.4448 93.3125 81.1934 93.142 80.861 93.0014C80.5328 92.8608 80.1301 92.733 79.6529 92.6179L78.2275 92.2599C77.1238 91.9915 76.2523 91.5717 75.6131 91.0007C74.9739 90.4297 74.6564 89.6605 74.6607 88.6932C74.6564 87.9006 74.8674 87.2081 75.2935 86.6158C75.7239 86.0234 76.3141 85.5611 77.0641 85.2287C77.8141 84.8963 78.6664 84.7301 79.6209 84.7301C80.5925 84.7301 81.4405 84.8963 82.165 85.2287C82.8936 85.5611 83.4604 86.0234 83.8652 86.6158C84.2701 87.2081 84.4789 87.8942 84.4917 88.674H81.839ZM89.3001 84.9091V98H86.5323V84.9091H89.3001ZM91.5772 98V84.9091H96.8187C97.7818 84.9091 98.585 85.0518 99.2285 85.3374C99.872 85.6229 100.356 86.0192 100.68 86.5263C101.003 87.0291 101.165 87.6087 101.165 88.2649C101.165 88.7763 101.063 89.2259 100.858 89.6136C100.654 89.9972 100.373 90.3125 100.015 90.5597C99.661 90.8026 99.2562 90.9751 98.8002 91.0774V91.2053C99.2988 91.2266 99.7654 91.3672 100.2 91.6271C100.639 91.8871 100.995 92.2514 101.268 92.7202C101.54 93.1847 101.677 93.7386 101.677 94.3821C101.677 95.0767 101.504 95.6967 101.159 96.2422C100.818 96.7834 100.313 97.2116 99.644 97.527C98.975 97.8423 98.1504 98 97.1703 98H91.5772ZM94.345 95.7372H96.6014C97.3727 95.7372 97.9352 95.5902 98.2889 95.2962C98.6426 94.9979 98.8194 94.6016 98.8194 94.1072C98.8194 93.745 98.7321 93.4254 98.5574 93.1484C98.3826 92.8714 98.1333 92.6541 97.8095 92.4964C97.4899 92.3388 97.1085 92.2599 96.6653 92.2599H94.345V95.7372ZM94.345 90.3871H96.3968C96.7761 90.3871 97.1127 90.321 97.4068 90.1889C97.7051 90.0526 97.9395 89.8608 98.1099 89.6136C98.2846 89.3665 98.372 89.0703 98.372 88.7251C98.372 88.2521 98.2037 87.8707 97.867 87.581C97.5346 87.2912 97.0616 87.1463 96.448 87.1463H94.345V90.3871ZM103.478 98V84.9091H106.245V95.718H111.858V98H103.478ZM111.254 84.9091H114.354L117.339 90.5469H117.467L120.452 84.9091H123.552L118.777 93.3722V98H116.028V93.3722L111.254 84.9091Z" fill="#EA4337"/>
<path d="M12.8409 39H2.52841V9.90909H12.9261C15.8523 9.90909 18.3712 10.4915 20.483 11.6562C22.5947 12.8116 24.2188 14.4735 25.3551 16.642C26.5009 18.8106 27.0739 21.4053 27.0739 24.4261C27.0739 27.4564 26.5009 30.0606 25.3551 32.2386C24.2188 34.4167 22.5852 36.0881 20.4545 37.2528C18.3333 38.4176 15.7955 39 12.8409 39ZM8.67898 33.7301H12.5852C14.4034 33.7301 15.9328 33.4081 17.1733 32.7642C18.4233 32.1108 19.3608 31.1023 19.9858 29.7386C20.6203 28.3655 20.9375 26.5947 20.9375 24.4261C20.9375 22.2765 20.6203 20.5199 19.9858 19.1562C19.3608 17.7926 18.428 16.7888 17.1875 16.1449C15.947 15.5009 14.4176 15.179 12.5994 15.179H8.67898V33.7301ZM31.63 39V9.90909H43.1072C45.3042 9.90909 47.1792 10.3021 48.7322 11.0881C50.2947 11.8646 51.4832 12.9678 52.2976 14.3977C53.1214 15.8182 53.5334 17.4896 53.5334 19.4119C53.5334 21.3437 53.1167 23.0057 52.2834 24.3977C51.45 25.7803 50.2427 26.8409 48.6612 27.5795C47.0893 28.3182 45.1858 28.6875 42.951 28.6875H35.2663V23.7443H41.9567C43.1309 23.7443 44.1063 23.5833 44.8828 23.2614C45.6593 22.9394 46.237 22.4564 46.6158 21.8125C47.004 21.1686 47.1982 20.3684 47.1982 19.4119C47.1982 18.446 47.004 17.6316 46.6158 16.9688C46.237 16.3059 45.6546 15.804 44.8686 15.4631C44.0921 15.1127 43.112 14.9375 41.9283 14.9375H37.7805V39H31.63ZM47.3402 25.7614L54.5703 39H47.7805L40.7067 25.7614H47.3402ZM64.0305 9.90909V39H57.88V9.90909H64.0305ZM93.4233 9.90909V39H88.1108L75.4545 20.6903H75.2415V39H69.0909V9.90909H74.4886L87.0455 28.2045H87.3011V9.90909H93.4233ZM98.505 39V9.90909H104.656V22.7358H105.039L115.508 9.90909H122.88L112.085 22.9347L123.008 39H115.65L107.681 27.0398L104.656 30.733V39H98.505Z" fill="white"/>
<path d="M11.3352 77.4261C9.32765 77.4261 7.5947 77.0663 6.13636 76.3466C4.67803 75.6269 3.55587 74.6515 2.76989 73.4205C1.99337 72.1799 1.60511 70.7973 1.60511 69.2727C1.60511 68.1364 1.83239 67.1278 2.28693 66.2472C2.74148 65.3665 3.37595 64.5568 4.19034 63.8182C5.00473 63.0701 5.9517 62.3267 7.03125 61.5881L12.6705 57.8807C13.3996 57.4167 13.9347 56.929 14.2756 56.4176C14.6165 55.8968 14.7869 55.3333 14.7869 54.7273C14.7869 54.1496 14.5549 53.6146 14.0909 53.1222C13.6269 52.6297 12.9688 52.3883 12.1165 52.3977C11.5483 52.3977 11.0559 52.5256 10.6392 52.7812C10.2225 53.0275 9.89583 53.3542 9.65909 53.7614C9.43182 54.1591 9.31818 54.6042 9.31818 55.0966C9.31818 55.7027 9.48864 56.3182 9.82955 56.9432C10.1705 57.5682 10.625 58.2311 11.1932 58.9318C11.7614 59.6231 12.3816 60.3712 13.054 61.1761L26.8466 77H20.5398L9.03409 64.1875C8.27652 63.3258 7.51894 62.4261 6.76136 61.4886C6.01326 60.5417 5.38826 59.5379 4.88636 58.4773C4.38447 57.4072 4.13352 56.2472 4.13352 54.9972C4.13352 53.5862 4.46023 52.3172 5.11364 51.1903C5.77652 50.0634 6.70455 49.1733 7.89773 48.5199C9.09091 47.857 10.483 47.5256 12.0739 47.5256C13.6269 47.5256 14.9669 47.8428 16.0938 48.4773C17.2301 49.1023 18.1013 49.9356 18.7074 50.9773C19.3229 52.0095 19.6307 53.1458 19.6307 54.3864C19.6307 55.7595 19.2898 57.0047 18.608 58.1222C17.9356 59.2301 16.9886 60.2244 15.767 61.1051L9.82955 65.3807C9.02462 65.9678 8.42803 66.5691 8.03977 67.1847C7.66099 67.7907 7.47159 68.3731 7.47159 68.9318C7.47159 69.6231 7.64205 70.2434 7.98295 70.7926C8.32386 71.3419 8.80682 71.7775 9.43182 72.0994C10.0568 72.4119 10.7907 72.5682 11.6335 72.5682C12.6562 72.5682 13.6648 72.3362 14.6591 71.8722C15.6629 71.3987 16.572 70.7311 17.3864 69.8693C18.2102 68.9981 18.8684 67.9659 19.3608 66.7727C19.8532 65.5795 20.0994 64.2585 20.0994 62.8097H25.1136C25.1136 64.59 24.9195 66.1951 24.5312 67.625C24.143 69.0455 23.6032 70.286 22.9119 71.3466C22.2206 72.3977 21.4299 73.2595 20.5398 73.9318C20.2557 74.1117 19.9811 74.2822 19.7159 74.4432C19.4508 74.6042 19.1761 74.7746 18.892 74.9545C17.8125 75.8258 16.6051 76.4555 15.2699 76.8438C13.9441 77.232 12.6326 77.4261 11.3352 77.4261Z" fill="#EA4337"/>
<path d="M37.5284 76V46.9091H43.679V70.929H56.1506V76H37.5284ZM66.3743 46.9091V76H60.2237V46.9091H66.3743ZM76.6903 46.9091L83.7216 69.0114H83.9915L91.0369 46.9091H97.8551L87.8267 76H79.9006L69.858 46.9091H76.6903ZM101.357 76V46.9091H120.959V51.9801H107.507V58.9119H119.95V63.983H107.507V70.929H121.016V76H101.357Z" fill="white"/>
<path d="M133.517 11.5455H138.068L142.875 23.2727H143.08L147.886 11.5455H152.438V29H148.858V17.6392H148.713L144.196 28.9148H141.759L137.241 17.5966H137.097V29H133.517V11.5455ZM166.259 11.5455H169.95V22.8807C169.95 24.1534 169.646 25.267 169.038 26.2216C168.435 27.1761 167.592 27.9205 166.506 28.4545C165.421 28.983 164.157 29.2472 162.714 29.2472C161.265 29.2472 159.998 28.983 158.913 28.4545C157.827 27.9205 156.984 27.1761 156.381 26.2216C155.779 25.267 155.478 24.1534 155.478 22.8807V11.5455H159.168V22.5653C159.168 23.2301 159.313 23.821 159.603 24.3381C159.898 24.8551 160.313 25.2614 160.847 25.5568C161.381 25.8523 162.004 26 162.714 26C163.43 26 164.052 25.8523 164.58 25.5568C165.114 25.2614 165.526 24.8551 165.816 24.3381C166.112 23.821 166.259 23.2301 166.259 22.5653V11.5455ZM182.455 16.5653C182.386 15.8778 182.094 15.3437 181.577 14.9631C181.06 14.5824 180.358 14.392 179.472 14.392C178.869 14.392 178.361 14.4773 177.946 14.6477C177.531 14.8125 177.213 15.0426 176.991 15.3381C176.776 15.6335 176.668 15.9688 176.668 16.3438C176.656 16.6562 176.722 16.929 176.864 17.1619C177.011 17.3949 177.213 17.5966 177.469 17.767C177.724 17.9318 178.02 18.0767 178.355 18.2017C178.69 18.321 179.048 18.4233 179.429 18.5085L180.997 18.8835C181.759 19.054 182.457 19.2812 183.094 19.5653C183.73 19.8494 184.281 20.1989 184.747 20.6136C185.213 21.0284 185.574 21.517 185.83 22.0795C186.091 22.642 186.224 23.2869 186.23 24.0142C186.224 25.0824 185.952 26.0085 185.412 26.7926C184.878 27.571 184.105 28.1761 183.094 28.608C182.088 29.0341 180.875 29.2472 179.455 29.2472C178.045 29.2472 176.818 29.0312 175.773 28.5994C174.733 28.1676 173.92 27.5284 173.335 26.6818C172.756 25.8295 172.452 24.7756 172.423 23.5199H175.994C176.034 24.1051 176.202 24.5937 176.497 24.9858C176.798 25.3722 177.199 25.6648 177.699 25.8636C178.205 26.0568 178.776 26.1534 179.412 26.1534C180.037 26.1534 180.58 26.0625 181.04 25.8807C181.506 25.6989 181.866 25.446 182.122 25.1222C182.378 24.7983 182.506 24.4261 182.506 24.0057C182.506 23.6136 182.389 23.2841 182.156 23.017C181.929 22.75 181.594 22.5227 181.151 22.3352C180.713 22.1477 180.176 21.9773 179.54 21.8239L177.639 21.3466C176.168 20.9886 175.006 20.429 174.153 19.6676C173.301 18.9062 172.878 17.8807 172.884 16.5909C172.878 15.5341 173.159 14.6108 173.727 13.821C174.301 13.0312 175.088 12.4148 176.088 11.9716C177.088 11.5284 178.224 11.3068 179.497 11.3068C180.793 11.3068 181.923 11.5284 182.889 11.9716C183.861 12.4148 184.616 13.0312 185.156 13.821C185.696 14.6108 185.974 15.5256 185.991 16.5653H182.455ZM188.048 14.5881V11.5455H202.383V14.5881H197.039V29H193.391V14.5881H188.048ZM210.298 29V11.5455H217.287C218.571 11.5455 219.642 11.7358 220.5 12.1165C221.358 12.4972 222.003 13.0256 222.435 13.7017C222.866 14.3722 223.082 15.1449 223.082 16.0199C223.082 16.7017 222.946 17.3011 222.673 17.8182C222.401 18.3295 222.026 18.75 221.548 19.0795C221.077 19.4034 220.537 19.6335 219.929 19.7699V19.9403C220.594 19.9687 221.216 20.1562 221.795 20.5028C222.381 20.8494 222.855 21.3352 223.219 21.9602C223.582 22.5795 223.764 23.3182 223.764 24.1761C223.764 25.1023 223.534 25.929 223.074 26.6562C222.619 27.3778 221.946 27.9489 221.054 28.3693C220.162 28.7898 219.063 29 217.756 29H210.298ZM213.989 25.983H216.997C218.026 25.983 218.776 25.7869 219.247 25.3949C219.719 24.9972 219.955 24.4687 219.955 23.8097C219.955 23.3267 219.838 22.9006 219.605 22.5312C219.372 22.1619 219.04 21.8722 218.608 21.6619C218.182 21.4517 217.673 21.3466 217.082 21.3466H213.989V25.983ZM213.989 18.8494H216.724C217.23 18.8494 217.679 18.7614 218.071 18.5852C218.469 18.4034 218.781 18.1477 219.009 17.8182C219.241 17.4886 219.358 17.0938 219.358 16.6335C219.358 16.0028 219.134 15.4943 218.685 15.108C218.241 14.7216 217.611 14.5284 216.793 14.5284H213.989V18.8494ZM226.165 29V11.5455H237.927V14.5881H229.856V18.7472H237.322V21.7898H229.856V25.9574H237.961V29H226.165ZM253.907 11.5455V29H250.217V15.0483H250.114L246.117 17.554V14.2812L250.438 11.5455H253.907ZM264.567 29.2386C263.254 29.2386 262.087 29.0256 261.064 28.5994C260.047 28.1676 259.249 27.5795 258.669 26.8352C258.089 26.0909 257.8 25.2472 257.8 24.304C257.8 23.5767 257.964 22.9091 258.294 22.3011C258.629 21.6875 259.084 21.179 259.658 20.7756C260.232 20.3665 260.874 20.1051 261.584 19.9915V19.8722C260.652 19.6847 259.896 19.233 259.317 18.517C258.737 17.7955 258.447 16.9574 258.447 16.0028C258.447 15.0994 258.712 14.2955 259.24 13.5909C259.768 12.8807 260.493 12.3239 261.413 11.9205C262.339 11.5114 263.391 11.3068 264.567 11.3068C265.743 11.3068 266.791 11.5114 267.712 11.9205C268.638 12.3295 269.365 12.8892 269.893 13.5994C270.422 14.304 270.689 15.1051 270.695 16.0028C270.689 16.9631 270.393 17.8011 269.808 18.517C269.223 19.233 268.473 19.6847 267.558 19.8722V19.9915C268.257 20.1051 268.891 20.3665 269.459 20.7756C270.033 21.179 270.487 21.6875 270.822 22.3011C271.163 22.9091 271.337 23.5767 271.342 24.304C271.337 25.2472 271.044 26.0909 270.464 26.8352C269.885 27.5795 269.084 28.1676 268.061 28.5994C267.044 29.0256 265.879 29.2386 264.567 29.2386ZM264.567 26.5284C265.152 26.5284 265.663 26.4233 266.101 26.2131C266.538 25.9972 266.879 25.7017 267.124 25.3267C267.374 24.946 267.499 24.5085 267.499 24.0142C267.499 23.5085 267.371 23.0625 267.115 22.6761C266.859 22.2841 266.513 21.9773 266.075 21.7557C265.638 21.5284 265.135 21.4148 264.567 21.4148C264.004 21.4148 263.501 21.5284 263.058 21.7557C262.615 21.9773 262.266 22.2841 262.01 22.6761C261.76 23.0625 261.635 23.5085 261.635 24.0142C261.635 24.5085 261.757 24.946 262.001 25.3267C262.246 25.7017 262.589 25.9972 263.033 26.2131C263.476 26.4233 263.987 26.5284 264.567 26.5284ZM264.567 18.7301C265.055 18.7301 265.49 18.6307 265.871 18.4318C266.251 18.233 266.55 17.9574 266.766 17.6051C266.982 17.2528 267.089 16.8466 267.089 16.3864C267.089 15.9318 266.982 15.5341 266.766 15.1932C266.55 14.8466 266.254 14.5767 265.879 14.3835C265.504 14.1847 265.067 14.0852 264.567 14.0852C264.072 14.0852 263.635 14.1847 263.254 14.3835C262.874 14.5767 262.575 14.8466 262.359 15.1932C262.149 15.5341 262.044 15.9318 262.044 16.3864C262.044 16.8466 262.152 17.2528 262.368 17.6051C262.584 17.9574 262.882 18.233 263.263 18.4318C263.643 18.6307 264.078 18.7301 264.567 18.7301ZM278.557 11.5455H282.69L286.67 19.0625H286.841L290.821 11.5455H294.955L288.588 22.8295V29H284.923V22.8295L278.557 11.5455ZM296.97 29V11.5455H308.732V14.5881H300.661V18.7472H308.126V21.7898H300.661V25.9574H308.766V29H296.97ZM314.674 29H310.719L316.745 11.5455H321.501L327.518 29H323.563L319.191 15.5341H319.055L314.674 29ZM314.427 22.1392H323.768V25.0199H314.427V22.1392ZM329.619 29V11.5455H336.505C337.823 11.5455 338.948 11.7812 339.88 12.2528C340.817 12.7187 341.531 13.3807 342.019 14.2386C342.513 15.0909 342.761 16.0937 342.761 17.2472C342.761 18.4062 342.511 19.4034 342.011 20.2386C341.511 21.0682 340.786 21.7045 339.837 22.1477C338.894 22.5909 337.752 22.8125 336.411 22.8125H331.8V19.8466H335.815C336.519 19.8466 337.104 19.75 337.57 19.5568C338.036 19.3636 338.383 19.0739 338.61 18.6875C338.843 18.3011 338.96 17.821 338.96 17.2472C338.96 16.6676 338.843 16.179 338.61 15.7812C338.383 15.3835 338.033 15.0824 337.562 14.8778C337.096 14.6676 336.508 14.5625 335.798 14.5625H333.309V29H329.619ZM339.045 21.0568L343.383 29H339.309L335.065 21.0568H339.045ZM354.837 16.5653C354.769 15.8778 354.477 15.3437 353.96 14.9631C353.442 14.5824 352.741 14.392 351.854 14.392C351.252 14.392 350.744 14.4773 350.329 14.6477C349.914 14.8125 349.596 15.0426 349.374 15.3381C349.158 15.6335 349.05 15.9688 349.05 16.3438C349.039 16.6562 349.104 16.929 349.246 17.1619C349.394 17.3949 349.596 17.5966 349.852 17.767C350.107 17.9318 350.403 18.0767 350.738 18.2017C351.073 18.321 351.431 18.4233 351.812 18.5085L353.38 18.8835C354.141 19.054 354.84 19.2812 355.477 19.5653C356.113 19.8494 356.664 20.1989 357.13 20.6136C357.596 21.0284 357.957 21.517 358.212 22.0795C358.474 22.642 358.607 23.2869 358.613 24.0142C358.607 25.0824 358.335 26.0085 357.795 26.7926C357.261 27.571 356.488 28.1761 355.477 28.608C354.471 29.0341 353.258 29.2472 351.837 29.2472C350.428 29.2472 349.201 29.0312 348.156 28.5994C347.116 28.1676 346.303 27.5284 345.718 26.6818C345.138 25.8295 344.835 24.7756 344.806 23.5199H348.377C348.417 24.1051 348.585 24.5937 348.88 24.9858C349.181 25.3722 349.582 25.6648 350.082 25.8636C350.587 26.0568 351.158 26.1534 351.795 26.1534C352.42 26.1534 352.962 26.0625 353.423 25.8807C353.888 25.6989 354.249 25.446 354.505 25.1222C354.761 24.7983 354.888 24.4261 354.888 24.0057C354.888 23.6136 354.772 23.2841 354.539 23.017C354.312 22.75 353.977 22.5227 353.533 22.3352C353.096 22.1477 352.559 21.9773 351.923 21.8239L350.022 21.3466C348.55 20.9886 347.388 20.429 346.536 19.6676C345.684 18.9062 345.261 17.8807 345.266 16.5909C345.261 15.5341 345.542 14.6108 346.11 13.821C346.684 13.0312 347.471 12.4148 348.471 11.9716C349.471 11.5284 350.607 11.3068 351.88 11.3068C353.175 11.3068 354.306 11.5284 355.272 11.9716C356.244 12.4148 356.999 13.0312 357.539 13.821C358.079 14.6108 358.357 15.5256 358.374 16.5653H354.837ZM371.934 29.2557C370.729 29.2557 369.69 29.0398 368.815 28.608C367.94 28.1761 367.266 27.5909 366.795 26.8523C366.329 26.108 366.096 25.2784 366.096 24.3636C366.096 23.6818 366.232 23.0767 366.505 22.5483C366.778 22.0199 367.158 21.5341 367.647 21.0909C368.136 20.642 368.704 20.196 369.352 19.7528L372.735 17.5284C373.173 17.25 373.494 16.9574 373.698 16.6506C373.903 16.3381 374.005 16 374.005 15.6364C374.005 15.2898 373.866 14.9687 373.587 14.6733C373.309 14.3778 372.914 14.233 372.403 14.2386C372.062 14.2386 371.766 14.3153 371.516 14.4688C371.266 14.6165 371.07 14.8125 370.928 15.0568C370.792 15.2955 370.724 15.5625 370.724 15.858C370.724 16.2216 370.826 16.5909 371.031 16.9659C371.235 17.3409 371.508 17.7386 371.849 18.1591C372.19 18.5739 372.562 19.0227 372.965 19.5057L381.241 29H377.457L370.553 21.3125C370.099 20.7955 369.644 20.2557 369.19 19.6932C368.741 19.125 368.366 18.5227 368.065 17.8864C367.763 17.2443 367.613 16.5483 367.613 15.7983C367.613 14.9517 367.809 14.1903 368.201 13.5142C368.599 12.8381 369.156 12.304 369.871 11.9119C370.587 11.5142 371.423 11.3153 372.377 11.3153C373.309 11.3153 374.113 11.5057 374.789 11.8864C375.471 12.2614 375.994 12.7614 376.357 13.3864C376.727 14.0057 376.911 14.6875 376.911 15.4318C376.911 16.2557 376.707 17.0028 376.298 17.6733C375.894 18.3381 375.326 18.9347 374.593 19.4631L371.031 22.0284C370.548 22.3807 370.19 22.7415 369.957 23.1108C369.729 23.4744 369.616 23.8239 369.616 24.1591C369.616 24.5739 369.718 24.946 369.923 25.2756C370.127 25.6051 370.417 25.8665 370.792 26.0597C371.167 26.2472 371.607 26.3409 372.113 26.3409C372.727 26.3409 373.332 26.2017 373.928 25.9233C374.531 25.6392 375.076 25.2386 375.565 24.7216C376.059 24.1989 376.454 23.5795 376.749 22.8636C377.045 22.1477 377.192 21.3551 377.192 20.4858H380.201C380.201 21.554 380.085 22.517 379.852 23.375C379.619 24.2273 379.295 24.9716 378.88 25.608C378.465 26.2386 377.991 26.7557 377.457 27.1591C377.286 27.267 377.121 27.3693 376.962 27.4659C376.803 27.5625 376.638 27.6648 376.468 27.7727C375.82 28.2955 375.096 28.6733 374.295 28.9062C373.499 29.1392 372.712 29.2557 371.934 29.2557ZM404.416 20.2727C404.416 22.1761 404.055 23.7955 403.334 25.1307C402.618 26.4659 401.641 27.4858 400.402 28.1903C399.169 28.8892 397.783 29.2386 396.243 29.2386C394.692 29.2386 393.3 28.8864 392.067 28.1818C390.834 27.4773 389.859 26.4574 389.143 25.1222C388.428 23.7869 388.07 22.1705 388.07 20.2727C388.07 18.3693 388.428 16.75 389.143 15.4148C389.859 14.0795 390.834 13.0625 392.067 12.3636C393.3 11.6591 394.692 11.3068 396.243 11.3068C397.783 11.3068 399.169 11.6591 400.402 12.3636C401.641 13.0625 402.618 14.0795 403.334 15.4148C404.055 16.75 404.416 18.3693 404.416 20.2727ZM400.675 20.2727C400.675 19.0398 400.49 18 400.121 17.1534C399.757 16.3068 399.243 15.6648 398.578 15.2273C397.913 14.7898 397.135 14.571 396.243 14.571C395.351 14.571 394.572 14.7898 393.908 15.2273C393.243 15.6648 392.726 16.3068 392.357 17.1534C391.993 18 391.811 19.0398 391.811 20.2727C391.811 21.5057 391.993 22.5455 392.357 23.392C392.726 24.2386 393.243 24.8807 393.908 25.3182C394.572 25.7557 395.351 25.9744 396.243 25.9744C397.135 25.9744 397.913 25.7557 398.578 25.3182C399.243 24.8807 399.757 24.2386 400.121 23.392C400.49 22.5455 400.675 21.5057 400.675 20.2727ZM407.15 29V11.5455H410.84V25.9574H418.323V29H407.15ZM426.955 29H420.767V11.5455H427.006C428.761 11.5455 430.273 11.8949 431.54 12.5938C432.807 13.2869 433.781 14.2841 434.463 15.5852C435.151 16.8864 435.494 18.4432 435.494 20.2557C435.494 22.0739 435.151 23.6364 434.463 24.9432C433.781 26.25 432.801 27.2528 431.523 27.9517C430.25 28.6506 428.727 29 426.955 29ZM424.457 25.8381H426.801C427.892 25.8381 428.81 25.6449 429.554 25.2585C430.304 24.8665 430.866 24.2614 431.241 23.4432C431.622 22.6193 431.812 21.5568 431.812 20.2557C431.812 18.9659 431.622 17.9119 431.241 17.0938C430.866 16.2756 430.307 15.6733 429.562 15.2869C428.818 14.9006 427.901 14.7074 426.81 14.7074H424.457V25.8381ZM438.228 29V11.5455H449.989V14.5881H441.918V18.7472H449.384V21.7898H441.918V25.9574H450.023V29H438.228ZM452.923 29V11.5455H459.81C461.128 11.5455 462.253 11.7812 463.185 12.2528C464.122 12.7187 464.835 13.3807 465.324 14.2386C465.818 15.0909 466.065 16.0937 466.065 17.2472C466.065 18.4062 465.815 19.4034 465.315 20.2386C464.815 21.0682 464.091 21.7045 463.142 22.1477C462.199 22.5909 461.057 22.8125 459.716 22.8125H455.105V19.8466H459.119C459.824 19.8466 460.409 19.75 460.875 19.5568C461.341 19.3636 461.688 19.0739 461.915 18.6875C462.148 18.3011 462.264 17.821 462.264 17.2472C462.264 16.6676 462.148 16.179 461.915 15.7812C461.688 15.3835 461.338 15.0824 460.866 14.8778C460.401 14.6676 459.813 14.5625 459.102 14.5625H456.614V29H452.923ZM462.349 21.0568L466.688 29H462.614L458.369 21.0568H462.349Z" fill="white"/>
<path d="M333 88.5C333 81.5964 327.404 76 320.5 76C313.596 76 308 81.5964 308 88.5C308 94.739 312.571 99.9104 318.547 100.848V92.1133H315.373V88.5H318.547V85.7461C318.547 82.6133 320.413 80.8828 323.268 80.8828C324.635 80.8828 326.066 81.127 326.066 81.127V84.2031H324.49C322.938 84.2031 322.453 85.1667 322.453 86.1563V88.5H325.92L325.366 92.1133H322.453V100.848C328.429 99.9104 333 94.739 333 88.5Z" fill="white"/>
<path d="M357.5 78.251C360.84 78.251 361.235 78.2656 362.549 78.3242C363.77 78.3779 364.429 78.583 364.868 78.7539C365.449 78.9785 365.869 79.252 366.304 79.6865C366.743 80.126 367.012 80.541 367.236 81.1221C367.407 81.5615 367.612 82.2256 367.666 83.4414C367.725 84.7598 367.739 85.1553 367.739 88.4902C367.739 91.8301 367.725 92.2256 367.666 93.5391C367.612 94.7598 367.407 95.4189 367.236 95.8584C367.012 96.4395 366.738 96.8594 366.304 97.2939C365.864 97.7334 365.449 98.002 364.868 98.2266C364.429 98.3975 363.765 98.6025 362.549 98.6562C361.23 98.7148 360.835 98.7295 357.5 98.7295C354.16 98.7295 353.765 98.7148 352.451 98.6562C351.23 98.6025 350.571 98.3975 350.132 98.2266C349.551 98.002 349.131 97.7285 348.696 97.2939C348.257 96.8545 347.988 96.4395 347.764 95.8584C347.593 95.4189 347.388 94.7549 347.334 93.5391C347.275 92.2207 347.261 91.8252 347.261 88.4902C347.261 85.1504 347.275 84.7549 347.334 83.4414C347.388 82.2207 347.593 81.5615 347.764 81.1221C347.988 80.541 348.262 80.1211 348.696 79.6865C349.136 79.2471 349.551 78.9785 350.132 78.7539C350.571 78.583 351.235 78.3779 352.451 78.3242C353.765 78.2656 354.16 78.251 357.5 78.251ZM357.5 76C354.106 76 353.682 76.0146 352.349 76.0732C351.021 76.1318 350.107 76.3467 349.316 76.6543C348.491 76.9766 347.793 77.4014 347.1 78.0996C346.401 78.793 345.977 79.4912 345.654 80.3115C345.347 81.1074 345.132 82.0156 345.073 83.3437C345.015 84.6816 345 85.1064 345 88.5C345 91.8936 345.015 92.3184 345.073 93.6514C345.132 94.9795 345.347 95.8926 345.654 96.6836C345.977 97.5088 346.401 98.207 347.1 98.9004C347.793 99.5937 348.491 100.023 349.312 100.341C350.107 100.648 351.016 100.863 352.344 100.922C353.677 100.98 354.102 100.995 357.495 100.995C360.889 100.995 361.313 100.98 362.646 100.922C363.975 100.863 364.888 100.648 365.679 100.341C366.499 100.023 367.197 99.5937 367.891 98.9004C368.584 98.207 369.014 97.5088 369.331 96.6885C369.639 95.8926 369.854 94.9844 369.912 93.6562C369.971 92.3232 369.985 91.8984 369.985 88.5049C369.985 85.1113 369.971 84.6865 369.912 83.3535C369.854 82.0254 369.639 81.1123 369.331 80.3213C369.023 79.4912 368.599 78.793 367.9 78.0996C367.207 77.4062 366.509 76.9766 365.688 76.6592C364.893 76.3516 363.984 76.1367 362.656 76.0781C361.318 76.0146 360.894 76 357.5 76Z" fill="white"/>
<path d="M357.5 82.0791C353.955 82.0791 351.079 84.9551 351.079 88.5C351.079 92.0449 353.955 94.9209 357.5 94.9209C361.045 94.9209 363.921 92.0449 363.921 88.5C363.921 84.9551 361.045 82.0791 357.5 82.0791ZM357.5 92.665C355.2 92.665 353.335 90.7998 353.335 88.5C353.335 86.2002 355.2 84.335 357.5 84.335C359.8 84.335 361.665 86.2002 361.665 88.5C361.665 90.7998 359.8 92.665 357.5 92.665Z" fill="white"/>
<path d="M365.674 81.8252C365.674 82.6553 365 83.3242 364.175 83.3242C363.345 83.3242 362.676 82.6504 362.676 81.8252C362.676 80.9951 363.35 80.3262 364.175 80.3262C365 80.3262 365.674 81 365.674 81.8252Z" fill="white"/>
</svg>
